#!OML:ASF H:\Terrain\Patient Classification 1\Terrain2\Thursday\justin.ASF
:FULLY-SPECIFIED
:DEGREES
3953
root 7.60513 17.1012 -20.728 334.966 78.9871 -26.4801
lowerback 6.98097 -0.531182 1.89309
upperback 3.43877 -0.415964 3.9623
thorax -0.34953 -0.160701 3.05293
lowerneck -7.28273 -7.03265 -10.9989
upperneck 40.1196 -8.81694 6.88379
head 16.5627 -3.90156 3.78328
rclavicle 3.20043e-014 -1.74931e-014
rhumerus -33.9969 -14.9442 -74.789
rradius 38.037
rwrist -13.1002
rhand -22.2544 13.0068
rfingers 7.12502
rthumb 4.1631 -16.9323
lclavicle 3.20043e-014 -1.74931e-014
lhumerus -36.862 3.78436 83.6197
lradius 33.2814
lwrist 1.586
lhand -18.4569 18.2926
lfingers 7.12502
lthumb 7.82933 48.1276
rfemur -17.0812 0.180904 25.6713
rtibia 41.6992
rfoot -21.4736 6.73218
rtoes 9.99593
lfemur -18.3905 -1.95907 -12.8337
ltibia 37.3871
lfoot -14.5928 -20.5256
ltoes 18.3049
3954
root 7.61576 17.0938 -20.7455 335.33 78.4663 -26.2175
lowerback 7.05199 -0.607156 2.04346
upperback 3.41885 -0.503951 3.95678
thorax -0.407338 -0.203162 2.96972
lowerneck -7.36405 -7.0924 -11.3189
upperneck 40.1409 -8.95035 7.14443
head 16.6581 -3.98036 3.93351
rclavicle 1.39149e-015 -1.74931e-014
rhumerus -34.0002 -14.9542 -75.0283
rradius 37.4982
rwrist -13.174
rhand -22.9129 12.8228
rfingers 7.12502
rthumb 3.5272 -17.1277
lclavicle 1.39149e-015 -1.74931e-014
lhumerus -36.9843 3.8466 83.3978
lradius 33.2606
lwrist 1.85753
lhand -18.125 18.2723
lfingers 7.12502
lthumb 8.1497 48.0952
rfemur -17.4077 -0.12906 25.8454
rtibia 42.0936
rfoot -21.5091 7.30391
rtoes 9.87291
lfemur -18.3627 -1.65847 -12.6609
ltibia 37.387
lfoot -14.7181 -20.4384
ltoes 18.5323
3955
root 7.63009 17.0884 -20.7586 336.166 77.8561 -25.3507
lowerback 7.16494 -0.769698 1.82121
upperback 3.44075 -0.724192 4.14155
thorax -0.433315 -0.315749 3.30495
lowerneck -7.43327 -6.98137 -11.6328
upperneck 40.1329 -8.6917 7.04229
head 16.6512 -3.942 3.98184
rclavicle -1.31198e-014 -1.90833e-014
rhumerus -33.9676 -13.7491 -75.2681
rradius 37.222
rwrist -13.7271
rhand -23.4385 11.9049
rfingers 7.12502
rthumb 3.01961 -18.0535
lclavicle -1.31198e-014 -1.90833e-014
lhumerus -37.2685 4.58841 83.293
lradius 33.2577
lwrist 1.95976
lhand -18.2871 18.6601
lfingers 7.12502
lthumb 7.99323 48.4889
rfemur -17.5777 -0.454438 25.9581
rtibia 42.4926
rfoot -21.4936 7.92054
rtoes 10.4578
lfemur -18.1302 -1.36829 -12.5928
ltibia 37.3741
lfoot -14.8653 -20.1478
ltoes 19.0097
3956
root 7.64669 17.0936 -20.7649 337.901 77.062 -23.5563
lowerback 7.24473 -0.844698 1.36725
upperback 3.51951 -0.849012 4.29472
thorax -0.380677 -0.384083 3.73116
lowerneck -7.57611 -6.86693 -11.9665
upperneck 40.118 -8.44246 7.00397
head 16.6654 -3.90244 4.05946
rclavicle -7.15625e-015 -2.70347e-014
rhumerus -33.9856 -12.7456 -75.3553
rradius 37.0669
rwrist -13.7001
rhand -22.6594 11.7884
rfingers 7.12502
rthumb 3.772 -18.1579
lclavicle -7.15625e-015 -2.70347e-014
lhumerus -37.3743 5.65146 83.1054
lradius 33.0431
lwrist 1.64984
lhand -18.6232 19.0418
lfingers 7.12502
lthumb 7.66888 48.8828
rfemur -17.7739 -0.622289 25.9288
rtibia 42.9336
rfoot -21.1489 8.55382
rtoes 11.7084
lfemur -17.8125 -1.07297 -12.6784
ltibia 37.3469
lfoot -15.4048 -19.4708
ltoes 18.2601
3957
root 7.661 17.096 -20.7821 340.143 76.3023 -21.2827
lowerback 7.32976 -0.792835 1.17674
upperback 3.58048 -0.799201 4.10202
thorax -0.367959 -0.362498 3.63506
lowerneck -7.55016 -6.86508 -11.8102
upperneck 39.9398 -8.50997 7.00183
head 16.5563 -3.91808 4.00784
rclavicle -3.77691e-015 -1.11319e-014
rhumerus -33.9627 -13.1427 -75.3609
rradius 36.4323
rwrist -12.7782
rhand -21.5487 12.7584
rfingers 7.12502
rthumb 4.84452 -17.1662
lclavicle -3.77691e-015 -1.11319e-014
lhumerus -37.2991 6.07387 82.7197
lradius 32.7452
lwrist 1.48699
lhand -19.0234 19.0093
lfingers 7.12502
lthumb 7.28257 48.864
rfemur -18.1264 -1.10921 25.6369
rtibia 43.456
rfoot -20.6394 9.54294
rtoes 13.5234
lfemur -17.54 -0.999333 -13.0052
ltibia 37.2997
lfoot -16.0847 -18.51
ltoes 16.8851
3958
root 7.6763 17.0918 -20.8024 342.447 75.5683 -18.9707
lowerback 7.418 -0.628714 1.22703
upperback 3.57072 -0.590442 3.66244
thorax -0.444804 -0.258316 3.13437
lowerneck -7.42072 -6.97703 -11.465
upperneck 39.8068 -8.84937 7.146
head 16.4817 -3.99939 3.94889
rclavicle 1.23246e-014 -3.1408e-014
rhumerus -34.1418 -13.5664 -75.6583
rradius 35.8464
rwrist -12.3029
rhand -21.1233 13.4039
rfingers 7.12502
rthumb 5.25533 -16.511
lclavicle 1.23246e-014 -3.1408e-014
lhumerus -37.3082 5.63575 82.2805
lradius 32.6265
lwrist 1.62944
lhand -19.211 18.9453
lfingers 7.12502
lthumb 7.10148 48.8062
rfemur -18.552 -1.9708 25.2547
rtibia 44.0463
rfoot -20.4277 10.2932
rtoes 14.0607
lfemur -17.3091 -0.835379 -13.4446
ltibia 37.2542
lfoot -16.7009 -17.5376
ltoes 15.489
3959
root 7.69299 17.0884 -20.8226 343.839 74.8091 -17.6715
lowerback 7.44622 -0.487606 1.37719
upperback 3.52786 -0.401126 3.39294
thorax -0.517085 -0.16273 2.75567
lowerneck -7.38719 -7.12261 -11.3893
upperneck 39.7478 -9.19691 7.37001
head 16.5013 -4.11273 3.97424
rclavicle 2.21645e-014 2.78299e-014
rhumerus -34.4669 -13.3353 -75.9926
rradius 35.7167
rwrist -12.6963
rhand -20.839 13.1833
rfingers 7.12502
rthumb 5.52979 -16.7246
lclavicle 2.21645e-014 2.78299e-014
lhumerus -37.3328 5.15337 82.0153
lradius 32.5979
lwrist 1.91632
lhand -19.2098 18.9374
lfingers 7.12502
lthumb 7.10262 48.7982
rfemur -19.0347 -3.06673 25.1405
rtibia 44.6863
rfoot -20.6011 10.6702
rtoes 12.0191
lfemur -17.1882 -0.482878 -13.6314
ltibia 37.192
lfoot -17 -16.8918
ltoes 15.1079
3960
root 7.70661 17.087 -20.8633 344.854 74.0647 -16.7294
lowerback 7.54992 -0.341518 1.81625
upperback 3.53668 -0.181682 3.11021
thorax -0.57662 -0.0480008 2.1991
lowerneck -7.4373 -7.35906 -11.306
upperneck 39.6735 -9.69358 7.63165
head 16.5598 -4.2812 3.98622
rclavicle -6.82825e-014 -1.07344e-014
rhumerus -34.7087 -13.9447 -76.0184
rradius 35.5391
rwrist -12.7245
rhand -20.3992 12.8311
rfingers 7.12502
rthumb 5.95443 -17.0653
lclavicle -6.82825e-014 -1.07344e-014
lhumerus -37.0531 4.72309 81.8602
lradius 32.3537
lwrist 2.086
lhand -19.4462 18.896
lfingers 7.12502
lthumb 6.87444 48.7644
rfemur -19.4913 -4.29136 25.0082
rtibia 45.3017
rfoot -20.6711 11.2605
rtoes 11.0278
lfemur -17.0797 -0.151744 -13.8013
ltibia 37.164
lfoot -17.0473 -16.4084
ltoes 15.6127
3961
root 7.72021 17.0882 -20.863 347.294 73.2692 -14.2598
lowerback 7.49907 -0.189239 1.09291
upperback 3.6182 -0.0396358 2.95105
thorax -0.467605 0.013964 2.42987
lowerneck -7.51391 -7.50576 -11.4234
upperneck 39.6472 -9.96257 7.77242
head 16.6269 -4.40061 4.01841
rclavicle 2.71341e-014 -3.37934e-014
rhumerus -34.5261 -14.5118 -75.945
rradius 34.806
rwrist -12.4386
rhand -19.9301 12.82
rfingers 7.12502
rthumb 6.40734 -17.0631
lclavicle 2.71341e-014 -3.37934e-014
lhumerus -36.8721 4.74853 81.7719
lradius 32.1362
lwrist 2.23775
lhand -19.9286 19.0364
lfingers 7.12502
lthumb 6.40876 48.9194
rfemur -19.9431 -4.85692 24.5466
rtibia 45.8938
rfoot -20.9304 11.049
rtoes 10.6019
lfemur -16.8895 0.0994416 -14.3591
ltibia 37.1762
lfoot -17.4141 -15.6432
ltoes 15.1068
3962
root 7.73707 17.0831 -20.8728 348.185 72.345 -13.361
lowerback 7.48693 -0.219209 0.83639
upperback 3.6655 -0.0989248 2.97009
thorax -0.409266 -0.0194768 2.59864
lowerneck -7.50605 -7.46282 -11.5798
upperneck 39.5613 -9.84015 7.63923
head 16.5616 -4.401 3.99892
rclavicle 2.95195e-014 -4.37326e-015
rhumerus -34.1725 -14.2854 -76.0014
rradius 33.8945
rwrist -12.0693
rhand -19.6924 13.0158
rfingers 7.12502
rthumb 6.63679 -16.8602
lclavicle 2.95195e-014 -4.37326e-015
lhumerus -36.9996 5.15725 81.6422
lradius 32.1151
lwrist 2.65387
lhand -20.4096 19.3668
lfingers 7.12502
lthumb 5.94434 49.2634
rfemur -20.3525 -5.9352 24.5764
rtibia 46.4302
rfoot -21.8724 10.4718
rtoes 6.36188
lfemur -16.6601 0.144627 -14.4718
ltibia 37.2011
lfoot -17.8764 -14.6951
ltoes 14.4334
3963
root 7.75207 17.0743 -20.8836 347.862 71.1911 -13.893
lowerback 7.39457 -0.205608 1.14991
upperback 3.63064 -0.0618977 3.0457
thorax -0.396003 0.0018136 2.49704
lowerneck -7.47966 -7.3925 -11.6515
upperneck 39.4672 -9.71652 7.56218
head 16.4842 -4.38059 3.99126
rclavicle -2.04748e-014 4.77083e-015
rhumerus -34.026 -13.8914 -76.1438
rradius 33.3201
rwrist -11.5056
rhand -19.585 12.9992
rfingers 7.12502
rthumb 6.74042 -16.8735
lclavicle -2.04748e-014 4.77083e-015
lhumerus -37.1072 5.77384 81.3103
lradius 31.9539
lwrist 2.74048
lhand -20.8343 19.2469
lfingers 7.12502
lthumb 5.53433 49.1546
rfemur -20.896 -6.94542 25.2121
rtibia 46.913
rfoot -22.7639 9.80203
rtoes 1.6733
lfemur -16.584 0.192892 -14.0374
ltibia 37.1976
lfoot -18.1688 -13.7142
ltoes 14.1387
